<svg width="14" height="15" viewBox="0 0 14 15" fill="none" xmlns="http://www.w3.org/2000/svg">
    <path d="M7.00303 4.40623C5.01553 4.40623 3.4124 6.00935 3.4124 7.99685C3.4124 9.98435 5.01553 11.5875 7.00303 11.5875C8.99053 11.5875 10.5937 9.98435 10.5937 7.99685C10.5937 6.00935 8.99053 4.40623 7.00303 4.40623ZM7.00303 10.3312C5.71865 10.3312 4.66865 9.28435 4.66865 7.99685C4.66865 6.70935 5.71553 5.66248 7.00303 5.66248C8.29053 5.66248 9.3374 6.70935 9.3374 7.99685C9.3374 9.28435 8.2874 10.3312 7.00303 10.3312ZM11.578 4.25935C11.578 4.72498 11.203 5.09685 10.7405 5.09685C10.2749 5.09685 9.90303 4.72185 9.90303 4.25935C9.90303 3.79685 10.278 3.42185 10.7405 3.42185C11.203 3.42185 11.578 3.79685 11.578 4.25935ZM13.9562 5.10935C13.903 3.98748 13.6468 2.99373 12.8249 2.17498C12.0062 1.35623 11.0124 1.09998 9.89053 1.04373C8.73428 0.978101 5.26865 0.978101 4.1124 1.04373C2.99365 1.09685 1.9999 1.3531 1.17803 2.17185C0.356153 2.9906 0.103027 3.98435 0.0467774 5.10623C-0.0188477 6.26248 -0.0188477 9.7281 0.0467774 10.8844C0.0999024 12.0062 0.356153 13 1.17803 13.8187C1.9999 14.6375 2.99053 14.8937 4.1124 14.95C5.26865 15.0156 8.73428 15.0156 9.89053 14.95C11.0124 14.8969 12.0062 14.6406 12.8249 13.8187C13.6437 13 13.8999 12.0062 13.9562 10.8844C14.0218 9.7281 14.0218 6.2656 13.9562 5.10935ZM12.4624 12.125C12.2187 12.7375 11.7468 13.2094 11.1312 13.4562C10.2093 13.8219 8.02178 13.7375 7.00303 13.7375C5.98428 13.7375 3.79365 13.8187 2.8749 13.4562C2.2624 13.2125 1.79053 12.7406 1.54365 12.125C1.17803 11.2031 1.2624 9.0156 1.2624 7.99685C1.2624 6.9781 1.18115 4.78748 1.54365 3.86873C1.7874 3.25623 2.25928 2.78435 2.8749 2.53748C3.79678 2.17185 5.98428 2.25623 7.00303 2.25623C8.02178 2.25623 10.2124 2.17498 11.1312 2.53748C11.7437 2.78123 12.2155 3.2531 12.4624 3.86873C12.828 4.7906 12.7437 6.9781 12.7437 7.99685C12.7437 9.0156 12.828 11.2062 12.4624 12.125Z" fill="black"/>
</svg>
