<svg width="18" height="10" viewBox="0 0 18 10" fill="none" xmlns="http://www.w3.org/2000/svg">
    <path d="M17.0311 0.67814C17.1467 0.287515 17.0311 1.52588e-05 16.4748 1.52588e-05H14.6342C14.1654 1.52588e-05 13.9498 0.24689 13.8342 0.52189C13.8342 0.52189 12.8967 2.80626 11.5717 4.28751C11.1436 4.71564 10.9467 4.85314 10.7123 4.85314C10.5967 4.85314 10.4186 4.71564 10.4186 4.32501V0.67814C10.4186 0.20939 10.2873 1.52588e-05 9.8998 1.52588e-05H7.00605C6.7123 1.52588e-05 6.5373 0.218765 6.5373 0.42189C6.5373 0.86564 7.1998 0.968764 7.26855 2.21876V4.93126C7.26855 5.52501 7.1623 5.63439 6.92793 5.63439C6.30293 5.63439 4.78418 3.34064 3.88418 0.71564C3.70293 0.206265 3.5248 1.52588e-05 3.05293 1.52588e-05H1.2123C0.687305 1.52588e-05 0.581055 0.24689 0.581055 0.52189C0.581055 1.00939 1.20605 3.43126 3.49043 6.63126C5.0123 8.81563 7.15605 10 9.10605 10C10.2779 10 10.4217 9.73751 10.4217 9.28438C10.4217 7.19688 10.3154 7.00001 10.9029 7.00001C11.1748 7.00001 11.6436 7.13751 12.7373 8.19063C13.9873 9.44063 14.1936 10 14.8936 10H16.7342C17.2592 10 17.5248 9.73751 17.3717 9.21876C17.0217 8.12813 14.6561 5.88439 14.5498 5.73439C14.2779 5.38439 14.3561 5.22814 14.5498 4.91564C14.5529 4.91251 16.7998 1.75001 17.0311 0.67814Z" fill="black"/>
</svg>
